<svg width="39" height="39" viewBox="0 0 39 39" fill="none" xmlns="http://www.w3.org/2000/svg">
<path d="M19.5 0.699951C9.11765 0.699951 0.699951 9.11772 0.699951 19.4999C0.699951 29.8822 9.11765 38.2999 19.5 38.2999C29.8822 38.2999 38.2999 29.8822 38.2999 19.4999C38.2999 9.11772 29.8822 0.699951 19.5 0.699951ZM28.8999 21.0666H21.0666V28.8999C21.0666 29.7663 20.3647 30.4666 19.5 30.4666C18.6352 30.4666 17.9333 29.7663 17.9333 28.8999V21.0666H10.1C9.23515 21.0666 8.53328 20.3663 8.53328 19.4999C8.53328 18.6336 9.23515 17.9333 10.1 17.9333H17.9333V10.1C17.9333 9.23356 18.6352 8.53329 19.5 8.53329C20.3647 8.53329 21.0666 9.23356 21.0666 10.1V17.9333H28.8999C29.7647 17.9333 30.4666 18.6336 30.4666 19.4999C30.4666 20.3663 29.7647 21.0666 28.8999 21.0666Z" fill="#285423"/>
</svg>
