<svg width="177" height="51" viewBox="0 0 177 51" fill="none" xmlns="http://www.w3.org/2000/svg">
<rect width="177" height="51" rx="25.5" fill="#52954B"/>
<path d="M38.9806 22.616C38.9059 22.7387 38.8286 22.8293 38.7486 22.888C38.6739 22.9413 38.5752 22.968 38.4526 22.968C38.3352 22.968 38.2072 22.928 38.0686 22.848C37.9352 22.7627 37.7779 22.672 37.5966 22.576C37.4152 22.48 37.2072 22.392 36.9726 22.312C36.7379 22.2267 36.4632 22.184 36.1486 22.184C35.5939 22.184 35.1779 22.3093 34.9006 22.56C34.6232 22.8053 34.4846 23.128 34.4846 23.528C34.4846 23.784 34.5592 23.9973 34.7086 24.168C34.8632 24.3333 35.0632 24.4773 35.3086 24.6C35.5592 24.7227 35.8419 24.832 36.1566 24.928C36.4712 25.024 36.7939 25.1307 37.1246 25.248C37.4552 25.36 37.7779 25.4933 38.0926 25.648C38.4072 25.8027 38.6872 25.9973 38.9326 26.232C39.1832 26.4667 39.3832 26.7547 39.5326 27.096C39.6872 27.432 39.7646 27.8427 39.7646 28.328C39.7646 28.856 39.6712 29.352 39.4846 29.816C39.3032 30.2747 39.0392 30.6773 38.6926 31.024C38.3459 31.3653 37.9166 31.6347 37.4046 31.832C36.8979 32.0293 36.3219 32.128 35.6766 32.128C35.3086 32.128 34.9406 32.0907 34.5726 32.016C34.2099 31.9413 33.8579 31.8373 33.5166 31.704C33.1806 31.5707 32.8632 31.4107 32.5646 31.224C32.2659 31.0373 32.0046 30.8293 31.7806 30.6L32.4846 29.464C32.5432 29.3787 32.6206 29.3093 32.7166 29.256C32.8126 29.1973 32.9139 29.168 33.0206 29.168C33.1646 29.168 33.3166 29.2213 33.4766 29.328C33.6366 29.4347 33.8206 29.552 34.0286 29.68C34.2366 29.808 34.4766 29.9253 34.7486 30.032C35.0259 30.1387 35.3566 30.192 35.7406 30.192C36.3006 30.192 36.7326 30.064 37.0366 29.808C37.3459 29.552 37.5006 29.1707 37.5006 28.664C37.5006 28.3707 37.4232 28.1333 37.2686 27.952C37.1192 27.7707 36.9219 27.6187 36.6766 27.496C36.4312 27.3733 36.1512 27.2693 35.8366 27.184C35.5219 27.0933 35.1992 26.9947 34.8686 26.888C34.5379 26.7813 34.2152 26.6533 33.9006 26.504C33.5859 26.3547 33.3059 26.1573 33.0606 25.912C32.8152 25.6667 32.6152 25.3627 32.4606 25C32.3112 24.6373 32.2366 24.1867 32.2366 23.648C32.2366 23.216 32.3219 22.7973 32.4926 22.392C32.6632 21.9867 32.9139 21.6267 33.2446 21.312C33.5752 20.9973 33.9806 20.744 34.4606 20.552C34.9459 20.36 35.5006 20.264 36.1246 20.264C36.8232 20.264 37.4686 20.3733 38.0606 20.592C38.6579 20.8053 39.1619 21.104 39.5726 21.488L38.9806 22.616ZM43.6897 32.128C43.3164 32.128 42.9857 32.0747 42.6977 31.968C42.4097 31.856 42.167 31.6987 41.9697 31.496C41.7724 31.2933 41.623 31.048 41.5217 30.76C41.4204 30.472 41.3697 30.1467 41.3697 29.784V25.336H40.5937C40.4764 25.336 40.375 25.2987 40.2897 25.224C40.2097 25.1493 40.1697 25.0373 40.1697 24.888V24.024L41.4897 23.784L41.9377 21.648C41.9964 21.408 42.159 21.288 42.4257 21.288H43.5777V23.8H45.7057V25.336H43.5777V29.64C43.5777 29.8693 43.631 30.0507 43.7377 30.184C43.8497 30.3173 44.007 30.384 44.2097 30.384C44.3164 30.384 44.407 30.3733 44.4817 30.352C44.5564 30.3253 44.6204 30.2987 44.6737 30.272C44.727 30.24 44.775 30.2133 44.8177 30.192C44.8657 30.1653 44.9137 30.152 44.9617 30.152C45.0257 30.152 45.079 30.168 45.1217 30.2C45.1644 30.2267 45.207 30.2747 45.2497 30.344L45.9137 31.4C45.6097 31.64 45.2657 31.8213 44.8817 31.944C44.4977 32.0667 44.1004 32.128 43.6897 32.128ZM51.2006 28.552C50.6619 28.5787 50.2139 28.6267 49.8566 28.696C49.4992 28.76 49.2139 28.8453 49.0006 28.952C48.7926 29.0587 48.6432 29.1813 48.5526 29.32C48.4672 29.4533 48.4246 29.6 48.4246 29.76C48.4246 30.08 48.5126 30.3067 48.6886 30.44C48.8699 30.5733 49.1206 30.64 49.4406 30.64C49.8086 30.64 50.1259 30.576 50.3926 30.448C50.6646 30.3147 50.9339 30.1093 51.2006 29.832V28.552ZM46.7046 24.896C47.1899 24.4587 47.7259 24.1333 48.3126 23.92C48.8992 23.7013 49.5339 23.592 50.2166 23.592C50.7072 23.592 51.1446 23.672 51.5286 23.832C51.9179 23.992 52.2459 24.216 52.5126 24.504C52.7846 24.7867 52.9926 25.1253 53.1366 25.52C53.2806 25.9147 53.3526 26.3467 53.3526 26.816V32H52.3446C52.1366 32 51.9766 31.9707 51.8646 31.912C51.7579 31.8533 51.6699 31.7307 51.6006 31.544L51.4246 31.016C51.2166 31.1973 51.0139 31.3573 50.8166 31.496C50.6246 31.6347 50.4246 31.752 50.2166 31.848C50.0086 31.9387 49.7846 32.008 49.5446 32.056C49.3099 32.104 49.0459 32.128 48.7526 32.128C48.3899 32.128 48.0592 32.08 47.7606 31.984C47.4619 31.888 47.2032 31.7467 46.9846 31.56C46.7712 31.368 46.6059 31.1307 46.4886 30.848C46.3712 30.5653 46.3126 30.24 46.3126 29.872C46.3126 29.568 46.3899 29.264 46.5446 28.96C46.6992 28.656 46.9632 28.3813 47.3366 28.136C47.7152 27.8853 48.2166 27.68 48.8406 27.52C49.4699 27.3547 50.2566 27.2613 51.2006 27.24V26.816C51.2006 26.2987 51.0912 25.92 50.8726 25.68C50.6539 25.4347 50.3392 25.312 49.9286 25.312C49.6246 25.312 49.3712 25.3493 49.1686 25.424C48.9659 25.4933 48.7872 25.5707 48.6326 25.656C48.4832 25.736 48.3419 25.8133 48.2086 25.888C48.0752 25.9573 47.9206 25.992 47.7446 25.992C47.5899 25.992 47.4592 25.9547 47.3526 25.88C47.2512 25.8 47.1659 25.7067 47.0966 25.6L46.7046 24.896ZM57.1481 25.112C57.4094 24.6427 57.7107 24.272 58.0521 24C58.3934 23.728 58.7934 23.592 59.2521 23.592C59.6254 23.592 59.9294 23.68 60.1641 23.856L60.0201 25.488C59.9934 25.5947 59.9507 25.6693 59.8921 25.712C59.8387 25.7493 59.7641 25.768 59.6681 25.768C59.5827 25.768 59.4601 25.7573 59.3001 25.736C59.1401 25.7093 58.9907 25.696 58.8521 25.696C58.6494 25.696 58.4681 25.7253 58.3081 25.784C58.1534 25.8427 58.0147 25.9253 57.8921 26.032C57.7694 26.1387 57.6574 26.2693 57.5561 26.424C57.4601 26.5787 57.3694 26.7547 57.2841 26.952V32H55.0761V23.752H56.3801C56.6041 23.752 56.7587 23.792 56.8441 23.872C56.9294 23.952 56.9907 24.0907 57.0281 24.288L57.1481 25.112ZM63.9553 32.128C63.582 32.128 63.2513 32.0747 62.9633 31.968C62.6753 31.856 62.4326 31.6987 62.2353 31.496C62.038 31.2933 61.8886 31.048 61.7873 30.76C61.686 30.472 61.6353 30.1467 61.6353 29.784V25.336H60.8593C60.742 25.336 60.6406 25.2987 60.5553 25.224C60.4753 25.1493 60.4353 25.0373 60.4353 24.888V24.024L61.7553 23.784L62.2033 21.648C62.262 21.408 62.4246 21.288 62.6913 21.288H63.8433V23.8H65.9713V25.336H63.8433V29.64C63.8433 29.8693 63.8966 30.0507 64.0033 30.184C64.1153 30.3173 64.2726 30.384 64.4753 30.384C64.582 30.384 64.6726 30.3733 64.7473 30.352C64.822 30.3253 64.886 30.2987 64.9393 30.272C64.9926 30.24 65.0406 30.2133 65.0833 30.192C65.1313 30.1653 65.1793 30.152 65.2273 30.152C65.2913 30.152 65.3446 30.168 65.3873 30.2C65.43 30.2267 65.4726 30.2747 65.5153 30.344L66.1793 31.4C65.8753 31.64 65.5313 31.8213 65.1473 31.944C64.7633 32.0667 64.366 32.128 63.9553 32.128ZM78.1928 23.752L73.7448 34.216C73.6755 34.3653 73.5901 34.4773 73.4888 34.552C73.3928 34.6267 73.2381 34.664 73.0248 34.664H71.3848L72.9448 31.336L69.6328 23.752H71.5688C71.7448 23.752 71.8808 23.792 71.9768 23.872C72.0728 23.952 72.1421 24.0453 72.1848 24.152L73.7528 28.096C73.8115 28.2507 73.8621 28.408 73.9048 28.568C73.9528 28.7227 73.9981 28.8773 74.0408 29.032C74.1368 28.7173 74.2461 28.4027 74.3688 28.088L75.8248 24.152C75.8675 24.0347 75.9448 23.9387 76.0568 23.864C76.1688 23.7893 76.2915 23.752 76.4248 23.752H78.1928ZM82.5148 23.624C83.1335 23.624 83.6961 23.7227 84.2028 23.92C84.7095 24.1173 85.1441 24.4 85.5068 24.768C85.8695 25.1307 86.1495 25.5733 86.3468 26.096C86.5441 26.6187 86.6428 27.208 86.6428 27.864C86.6428 28.52 86.5441 29.112 86.3468 29.64C86.1495 30.1627 85.8695 30.608 85.5068 30.976C85.1441 31.344 84.7095 31.6267 84.2028 31.824C83.6961 32.0213 83.1335 32.12 82.5148 32.12C81.8908 32.12 81.3228 32.0213 80.8108 31.824C80.3041 31.6267 79.8695 31.344 79.5068 30.976C79.1441 30.608 78.8615 30.1627 78.6588 29.64C78.4615 29.112 78.3628 28.52 78.3628 27.864C78.3628 27.208 78.4615 26.6187 78.6588 26.096C78.8615 25.5733 79.1441 25.1307 79.5068 24.768C79.8695 24.4 80.3041 24.1173 80.8108 23.92C81.3228 23.7227 81.8908 23.624 82.5148 23.624ZM82.5148 30.464C83.1441 30.464 83.6108 30.248 83.9148 29.816C84.2188 29.3787 84.3708 28.7307 84.3708 27.872C84.3708 27.0187 84.2188 26.376 83.9148 25.944C83.6108 25.5067 83.1441 25.288 82.5148 25.288C81.8695 25.288 81.3948 25.5067 81.0908 25.944C80.7868 26.376 80.6348 27.0187 80.6348 27.872C80.6348 28.7307 80.7868 29.3787 81.0908 29.816C81.3948 30.248 81.8695 30.464 82.5148 30.464ZM95.2692 23.752V32H93.9092C93.6265 32 93.4452 31.872 93.3652 31.616L93.2212 31.04C93.0559 31.2 92.8852 31.3467 92.7092 31.48C92.5332 31.6133 92.3439 31.728 92.1412 31.824C91.9439 31.92 91.7279 31.9947 91.4932 32.048C91.2639 32.1013 91.0132 32.128 90.7412 32.128C90.2932 32.128 89.8932 32.0507 89.5412 31.896C89.1945 31.7413 88.9039 31.5253 88.6692 31.248C88.4345 30.9707 88.2559 30.64 88.1332 30.256C88.0105 29.872 87.9492 29.4507 87.9492 28.992V23.752H90.1572V28.992C90.1572 29.4507 90.2612 29.808 90.4692 30.064C90.6825 30.3147 90.9972 30.44 91.4132 30.44C91.7225 30.44 92.0132 30.3733 92.2852 30.24C92.5572 30.1013 92.8159 29.9147 93.0612 29.68V23.752H95.2692ZM99.1637 25.112C99.425 24.6427 99.7264 24.272 100.068 24C100.409 23.728 100.809 23.592 101.268 23.592C101.641 23.592 101.945 23.68 102.18 23.856L102.036 25.488C102.009 25.5947 101.966 25.6693 101.908 25.712C101.854 25.7493 101.78 25.768 101.684 25.768C101.598 25.768 101.476 25.7573 101.316 25.736C101.156 25.7093 101.006 25.696 100.868 25.696C100.665 25.696 100.484 25.7253 100.324 25.784C100.169 25.8427 100.03 25.9253 99.9077 26.032C99.785 26.1387 99.673 26.2693 99.5717 26.424C99.4757 26.5787 99.385 26.7547 99.2997 26.952V32H97.0917V23.752H98.3957C98.6197 23.752 98.7744 23.792 98.8597 23.872C98.945 23.952 99.0064 24.0907 99.0437 24.288L99.1637 25.112ZM110.312 23.624C110.93 23.624 111.493 23.7227 112 23.92C112.506 24.1173 112.941 24.4 113.304 24.768C113.666 25.1307 113.946 25.5733 114.144 26.096C114.341 26.6187 114.44 27.208 114.44 27.864C114.44 28.52 114.341 29.112 114.144 29.64C113.946 30.1627 113.666 30.608 113.304 30.976C112.941 31.344 112.506 31.6267 112 31.824C111.493 32.0213 110.93 32.12 110.312 32.12C109.688 32.12 109.12 32.0213 108.608 31.824C108.101 31.6267 107.666 31.344 107.304 30.976C106.941 30.608 106.658 30.1627 106.456 29.64C106.258 29.112 106.16 28.52 106.16 27.864C106.16 27.208 106.258 26.6187 106.456 26.096C106.658 25.5733 106.941 25.1307 107.304 24.768C107.666 24.4 108.101 24.1173 108.608 23.92C109.12 23.7227 109.688 23.624 110.312 23.624ZM110.312 30.464C110.941 30.464 111.408 30.248 111.712 29.816C112.016 29.3787 112.168 28.7307 112.168 27.872C112.168 27.0187 112.016 26.376 111.712 25.944C111.408 25.5067 110.941 25.288 110.312 25.288C109.666 25.288 109.192 25.5067 108.888 25.944C108.584 26.376 108.432 27.0187 108.432 27.872C108.432 28.7307 108.584 29.3787 108.888 29.816C109.192 30.248 109.666 30.464 110.312 30.464ZM117.898 25.112C118.159 24.6427 118.461 24.272 118.802 24C119.143 23.728 119.543 23.592 120.002 23.592C120.375 23.592 120.679 23.68 120.914 23.856L120.77 25.488C120.743 25.5947 120.701 25.6693 120.642 25.712C120.589 25.7493 120.514 25.768 120.418 25.768C120.333 25.768 120.21 25.7573 120.05 25.736C119.89 25.7093 119.741 25.696 119.602 25.696C119.399 25.696 119.218 25.7253 119.058 25.784C118.903 25.8427 118.765 25.9253 118.642 26.032C118.519 26.1387 118.407 26.2693 118.306 26.424C118.21 26.5787 118.119 26.7547 118.034 26.952V32H115.826V23.752H117.13C117.354 23.752 117.509 23.792 117.594 23.872C117.679 23.952 117.741 24.0907 117.778 24.288L117.898 25.112ZM126.781 25.896C126.573 25.656 126.347 25.488 126.101 25.392C125.861 25.296 125.605 25.248 125.333 25.248C125.067 25.248 124.824 25.2987 124.605 25.4C124.387 25.5013 124.197 25.6613 124.037 25.88C123.883 26.0933 123.763 26.368 123.677 26.704C123.592 27.04 123.549 27.44 123.549 27.904C123.549 28.3627 123.584 28.752 123.653 29.072C123.723 29.392 123.821 29.6507 123.949 29.848C124.083 30.0453 124.243 30.1893 124.429 30.28C124.616 30.3653 124.824 30.408 125.053 30.408C125.443 30.408 125.768 30.3307 126.029 30.176C126.296 30.0213 126.547 29.8027 126.781 29.52V25.896ZM128.989 20.072V32H127.629C127.347 32 127.165 31.872 127.085 31.616L126.901 30.896C126.736 31.0773 126.56 31.2427 126.373 31.392C126.192 31.5413 125.995 31.672 125.781 31.784C125.568 31.8907 125.339 31.9733 125.093 32.032C124.848 32.0907 124.581 32.12 124.293 32.12C123.851 32.12 123.445 32.0267 123.077 31.84C122.709 31.6533 122.389 31.3813 122.117 31.024C121.851 30.6613 121.643 30.2187 121.493 29.696C121.344 29.1733 121.269 28.576 121.269 27.904C121.269 27.2907 121.352 26.72 121.517 26.192C121.688 25.664 121.928 25.208 122.237 24.824C122.547 24.44 122.92 24.1387 123.357 23.92C123.795 23.7013 124.28 23.592 124.813 23.592C125.261 23.592 125.637 23.6587 125.941 23.792C126.251 23.9253 126.531 24.1067 126.781 24.336V20.072H128.989ZM136.058 26.904C136.058 26.6747 136.026 26.456 135.962 26.248C135.903 26.04 135.807 25.856 135.674 25.696C135.541 25.536 135.373 25.4107 135.17 25.32C134.967 25.224 134.725 25.176 134.442 25.176C133.914 25.176 133.501 25.3253 133.202 25.624C132.903 25.9227 132.709 26.3493 132.618 26.904H136.058ZM132.586 28.216C132.655 28.9893 132.874 29.5547 133.242 29.912C133.615 30.2693 134.101 30.448 134.698 30.448C135.002 30.448 135.263 30.4133 135.482 30.344C135.706 30.2693 135.901 30.1893 136.066 30.104C136.237 30.0133 136.389 29.9333 136.522 29.864C136.661 29.7893 136.797 29.752 136.93 29.752C137.101 29.752 137.234 29.816 137.33 29.944L137.97 30.744C137.735 31.016 137.477 31.2427 137.194 31.424C136.911 31.6 136.618 31.7413 136.314 31.848C136.01 31.9493 135.703 32.0187 135.394 32.056C135.085 32.0987 134.786 32.12 134.498 32.12C133.922 32.12 133.383 32.0267 132.882 31.84C132.386 31.648 131.951 31.368 131.578 31C131.21 30.6267 130.919 30.1653 130.706 29.616C130.493 29.0667 130.386 28.4293 130.386 27.704C130.386 27.144 130.477 26.616 130.658 26.12C130.845 25.624 131.111 25.192 131.458 24.824C131.805 24.456 132.226 24.1653 132.722 23.952C133.218 23.7333 133.778 23.624 134.402 23.624C134.93 23.624 135.415 23.7093 135.858 23.88C136.306 24.0453 136.69 24.288 137.01 24.608C137.335 24.928 137.586 25.3227 137.762 25.792C137.943 26.256 138.034 26.7867 138.034 27.384C138.034 27.5493 138.026 27.6853 138.01 27.792C137.994 27.8987 137.967 27.984 137.93 28.048C137.893 28.112 137.842 28.1573 137.778 28.184C137.714 28.2053 137.631 28.216 137.53 28.216H132.586ZM141.476 25.112C141.738 24.6427 142.039 24.272 142.38 24C142.722 23.728 143.122 23.592 143.58 23.592C143.954 23.592 144.258 23.68 144.492 23.856L144.348 25.488C144.322 25.5947 144.279 25.6693 144.22 25.712C144.167 25.7493 144.092 25.768 143.996 25.768C143.911 25.768 143.788 25.7573 143.628 25.736C143.468 25.7093 143.319 25.696 143.18 25.696C142.978 25.696 142.796 25.7253 142.636 25.784C142.482 25.8427 142.343 25.9253 142.22 26.032C142.098 26.1387 141.986 26.2693 141.884 26.424C141.788 26.5787 141.698 26.7547 141.612 26.952V32H139.404V23.752H140.708C140.932 23.752 141.087 23.792 141.172 23.872C141.258 23.952 141.319 24.0907 141.356 24.288L141.476 25.112Z" fill="white"/>
</svg>
