<svg width="188" height="188" viewBox="0 0 188 188" fill="none" xmlns="http://www.w3.org/2000/svg">
<path d="M55.497 66.6892C72.6096 37.0496 115.39 37.0496 132.503 66.6892C149.615 96.3286 128.225 133.378 94 133.378C59.7748 133.378 38.3845 96.3286 55.497 66.6892Z" fill="white"/>
<path d="M94 13.7187C52.4708 13.7187 18.8 47.3895 18.8 88.9187C18.8 130.448 52.4708 164.119 94 164.119C135.529 164.119 169.2 130.448 169.2 88.9187C169.2 47.3895 135.529 13.7187 94 13.7187ZM131.6 95.1853H56.4C52.9408 95.1853 50.1334 92.3841 50.1334 88.9187C50.1334 85.4532 52.9408 82.652 56.4 82.652H131.6C135.059 82.652 137.867 85.4532 137.867 88.9187C137.867 92.3841 135.059 95.1853 131.6 95.1853Z" fill="#C16565"/>
</svg>
