<svg width="37" height="37" viewBox="0 0 37 37" fill="none" xmlns="http://www.w3.org/2000/svg">
<path d="M10.9223 14.125C14.2902 8.29167 22.7098 8.29167 26.0777 14.125C29.4456 19.9583 25.2358 27.25 18.5 27.25C11.7642 27.25 7.55439 19.9583 10.9223 14.125Z" fill="white"/>
<path d="M18.5 3.69995C10.3267 3.69995 3.70001 10.3267 3.70001 18.4999C3.70001 26.6732 10.3267 33.2999 18.5 33.2999C26.6733 33.2999 33.3 26.6732 33.3 18.4999C33.3 10.3267 26.6733 3.69995 18.5 3.69995ZM25.9 19.7333H19.7333V25.8999C19.7333 26.582 19.1808 27.1333 18.5 27.1333C17.8192 27.1333 17.2667 26.582 17.2667 25.8999V19.7333H11.1C10.4192 19.7333 9.86667 19.182 9.86667 18.4999C9.86667 17.8179 10.4192 17.2666 11.1 17.2666H17.2667V11.1C17.2667 10.4179 17.8192 9.86662 18.5 9.86662C19.1808 9.86662 19.7333 10.4179 19.7333 11.1V17.2666H25.9C26.5808 17.2666 27.1333 17.8179 27.1333 18.4999C27.1333 19.182 26.5808 19.7333 25.9 19.7333Z" fill="#9ED099"/>
</svg>
