<svg width="36" height="36" viewBox="0 0 36 36" fill="none" xmlns="http://www.w3.org/2000/svg">
    <g clip-path="url(#clip0)">
        <path
            d="M3.61721 5C2.29121 5 1.21721 6.074 1.21721 7.4V24.2C1.0582 24.1978 0.900323 24.2271 0.752761 24.2864C0.605199 24.3457 0.470894 24.4338 0.357651 24.5454C0.244407 24.6571 0.154484 24.7901 0.0931064 24.9368C0.0317291 25.0835 0.00012207 25.241 0.00012207 25.4C0.00012207 25.559 0.0317291 25.7165 0.0931064 25.8632C0.154484 26.0099 0.244407 26.1429 0.357651 26.2546C0.470894 26.3662 0.605199 26.4543 0.752761 26.5136C0.900323 26.5729 1.0582 26.6022 1.21721 26.6H3.61721H4.87815C5.17502 28.6225 6.91729 30.2 9.01721 30.2C11.1171 30.2 12.8594 28.6225 13.1563 26.6H21.6172H24.0781C24.375 28.6225 26.1173 30.2 28.2172 30.2C30.3171 30.2 32.0594 28.6225 32.3563 26.6H34.8172C34.9762 26.6022 35.1341 26.5729 35.2817 26.5136C35.4292 26.4543 35.5635 26.3662 35.6768 26.2546C35.79 26.1429 35.8799 26.0099 35.9413 25.8632C36.0027 25.7165 36.0343 25.559 36.0343 25.4C36.0343 25.241 36.0027 25.0835 35.9413 24.9368C35.8799 24.7901 35.79 24.6571 35.6768 24.5454C35.5635 24.4338 35.4292 24.3457 35.2817 24.2864C35.1341 24.2271 34.9762 24.1978 34.8172 24.2V18.2H27.6172V13.4C27.6172 12.7376 28.1548 12.2 28.8172 12.2H32.2461L31.8406 11.2555C31.4626 10.3735 30.5952 9.8 29.6352 9.8H21.6172V7.4C21.6172 6.074 20.5432 5 19.2172 5H3.61721ZM9.01721 24.2C10.0255 24.2 10.8172 24.9917 10.8172 26C10.8172 27.0083 10.0255 27.8 9.01721 27.8C8.00889 27.8 7.21721 27.0083 7.21721 26C7.21721 24.9917 8.00889 24.2 9.01721 24.2ZM28.2172 24.2C29.2255 24.2 30.0172 24.9917 30.0172 26C30.0172 27.0083 29.2255 27.8 28.2172 27.8C27.2089 27.8 26.4172 27.0083 26.4172 26C26.4172 24.9917 27.2089 24.2 28.2172 24.2Z"
            fill="#1E3F1A" />
    </g>
    <defs>
        <clipPath id="clip0">
            <rect width="36" height="36" fill="white" transform="translate(0.00012207)" />
        </clipPath>
    </defs>
</svg>